<?xml version="1.0" encoding="UTF-8" standalone="no"?>
<!-- Generator: Adobe Illustrator 15.0.2, SVG Export Plug-In . SVG Version: 6.00 Build 0)  -->

<svg
   xmlns:dc="http://purl.org/dc/elements/1.1/"
   xmlns:cc="http://creativecommons.org/ns#"
   xmlns:rdf="http://www.w3.org/1999/02/22-rdf-syntax-ns#"
   xmlns:svg="http://www.w3.org/2000/svg"
   xmlns="http://www.w3.org/2000/svg"
   xmlns:sodipodi="http://sodipodi.sourceforge.net/DTD/sodipodi-0.dtd"
   xmlns:inkscape="http://www.inkscape.org/namespaces/inkscape"
   version="1.1"
   id="Layer_1"
   x="0px"
   y="0px"
   width="14"
   height="18.29961"
   viewBox="0.333 0 14 18.29961"
   enable-background="new 0.333 0 512 669.242"
   xml:space="preserve"
   inkscape:version="0.91 r13725"
   sodipodi:docname="arrow-down-icon.svg"><metadata
     id="metadata4143"><rdf:RDF><cc:Work
         rdf:about=""><dc:format>image/svg+xml</dc:format><dc:type
           rdf:resource="http://purl.org/dc/dcmitype/StillImage" /><dc:title></dc:title></cc:Work></rdf:RDF></metadata><defs
     id="defs4141" /><sodipodi:namedview
     pagecolor="#ffffff"
     bordercolor="#666666"
     borderopacity="1"
     objecttolerance="10"
     gridtolerance="10"
     guidetolerance="10"
     inkscape:pageopacity="0"
     inkscape:pageshadow="2"
     inkscape:window-width="1366"
     inkscape:window-height="706"
     id="namedview4139"
     showgrid="false"
     fit-margin-top="0"
     fit-margin-left="0"
     fit-margin-right="0"
     fit-margin-bottom="0"
     inkscape:zoom="0.80240032"
     inkscape:cx="256.00013"
     inkscape:cy="334.622"
     inkscape:window-x="-8"
     inkscape:window-y="-8"
     inkscape:window-maximized="1"
     inkscape:current-layer="Layer_1" /><path
     d="m 6.2437637,1.08877 0,13.49365 -4.052042,-4.05273 c -0.4255234,-0.42533 -1.1142849,-0.42533 -1.53983554,0 -0.42530458,0.42484 -0.42505848,1.11478 0,1.53962 l 5.91108834,5.91134 c 0.2041484,0.20461 0.4808397,0.31896 0.7700272,0.31896 0.2891054,0 0.5660155,-0.11482 0.7701638,-0.31896 L 14.014008,12.06931 C 14.22666,11.85666 14.333,11.57833 14.333,11.29953 c 0,-0.27907 -0.10634,-0.55765 -0.318992,-0.76981 -0.425305,-0.42577 -1.114313,-0.42577 -1.539617,0 l -4.0527255,4.0527 0,-13.49365 C 8.4216655,0.48757 7.933525,0 7.3327829,0 6.7311932,0 6.2437637,0.48757 6.2437637,1.08877 Z"
     id="path4137"
     inkscape:connector-curvature="0"
     style="fill:#006aa4" /></svg>