<?xml version="1.0" encoding="utf-8"?>
<!-- Generator: Adobe Illustrator 16.0.4, SVG Export Plug-In . SVG Version: 6.00 Build 0)  -->
<!DOCTYPE svg PUBLIC "-//W3C//DTD SVG 1.1//EN" "http://www.w3.org/Graphics/SVG/1.1/DTD/svg11.dtd">
<svg version="1.1"
	 id="svg2" xmlns:dc="http://purl.org/dc/elements/1.1/" xmlns:cc="http://creativecommons.org/ns#" xmlns:rdf="http://www.w3.org/1999/02/22-rdf-syntax-ns#" xmlns:svg="http://www.w3.org/2000/svg" xmlns:sodipodi="http://sodipodi.sourceforge.net/DTD/sodipodi-0.dtd" xmlns:inkscape="http://www.inkscape.org/namespaces/inkscape" sodipodi:docname="spinner-on-003.svg" inkscape:version="0.48.4 r9939"
	 xmlns="http://www.w3.org/2000/svg" xmlns:xlink="http://www.w3.org/1999/xlink" x="0px" y="0px" width="32px" height="32px"
	 viewBox="0 0 32 32" enable-background="new 0 0 32 32" xml:space="preserve">
<defs>
	
	
		<inkscape:path-effect  id="path-effect4937" vertical_pattern="false" prop_units="false" pattern="M 0,0 0,10 10,5 z" is_visible="true" effect="skeletal" scale_y_rel="false" prop_scale="1" tang_offset="0" spacing="0" fuse_tolerance="0" normal_offset="0" copytype="single_stretched">
		</inkscape:path-effect>
	<inkscape:path-effect  id="path-effect4935" is_visible="true" effect="spiro"></inkscape:path-effect>
</defs>
<sodipodi:namedview  showgrid="true" inkscape:cy="21.094893" inkscape:cx="3.321495" inkscape:zoom="16" borderopacity="1.0" bordercolor="#666666" pagecolor="#ffffff" id="base" inkscape:window-maximized="1" inkscape:window-y="-8" inkscape:current-layer="layer2" inkscape:document-units="px" inkscape:pageopacity="0.0" inkscape:window-x="-8" inkscape:window-height="706" inkscape:window-width="1366" inkscape:pageshadow="2" inkscape:guide-bbox="true" inkscape:snap-to-guides="true" showguides="true">
	<inkscape:grid  id="grid4941" type="xygrid" snapvisiblegridlinesonly="true" empspacing="5" visible="true" enabled="true">
		</inkscape:grid>
	<sodipodi:guide  id="guide6249" orientation="1,0" position="250,950"></sodipodi:guide>
	<sodipodi:guide  id="guide6251" orientation="1,0" position="345,925"></sodipodi:guide>
	<sodipodi:guide  id="guide6253" orientation="0,1" position="273,981"></sodipodi:guide>
	<sodipodi:guide  id="guide6255" orientation="0,1" position="310,885"></sodipodi:guide>
</sodipodi:namedview>
<g id="g7153" transform="translate(0,-1020.3622)" inkscape:label="Cercle modèle" inkscape:groupmode="layer" display="none">
	
		<path id="path7155" sodipodi:cy="119.86218" sodipodi:ry="47.5" sodipodi:rx="47.5" sodipodi:cx="472.5" sodipodi:type="arc" display="inline" fill="none" stroke="#0078FF" stroke-width="3.6554" stroke-miterlimit="4.2" d="
		M122.072,1019.237c0,6.914-5.604,12.518-12.518,12.518s-12.519-5.604-12.519-12.518c0-6.914,5.604-12.519,12.519-12.519
		S122.072,1012.323,122.072,1019.237z"/>
	
		<path id="path6247" sodipodi:cy="119.86218" sodipodi:ry="47.5" sodipodi:rx="47.5" sodipodi:cx="472.5" sodipodi:type="arc" display="inline" fill="#FFFFFF" fill-opacity="0" stroke="#009696" stroke-width="3.6554" stroke-miterlimit="4.2" stroke-opacity="0.5882" d="
		M26.592,1036.362c0,5.85-4.742,10.592-10.592,10.592c-5.85,0-10.592-4.742-10.592-10.592c0-5.85,4.742-10.592,10.592-10.592
		C21.85,1025.77,26.592,1030.512,26.592,1036.362z"/>
</g>
<path fill="#007AFF" d="M27.939,26.07l-6.713-6.713c1.209-1.6,1.936-3.586,1.936-5.746c0-5.274-4.275-9.55-9.55-9.55
	s-9.551,4.276-9.551,9.55c0,5.275,4.276,9.551,9.551,9.551c2.159,0,4.146-0.727,5.746-1.936l6.713,6.713L27.939,26.07z M5.34,13.611
	c0-4.561,3.71-8.271,8.271-8.271c4.56,0,8.271,3.71,8.271,8.271c0,4.561-3.711,8.271-8.271,8.271
	C9.05,21.883,5.34,18.172,5.34,13.611"/>
</svg>
