<?xml version="1.0" encoding="UTF-8" standalone="no"?>
<!-- Generator: Adobe Illustrator 16.0.0, SVG Export Plug-In . SVG Version: 6.00 Build 0)  -->

<svg
   xmlns:dc="http://purl.org/dc/elements/1.1/"
   xmlns:cc="http://creativecommons.org/ns#"
   xmlns:rdf="http://www.w3.org/1999/02/22-rdf-syntax-ns#"
   xmlns:svg="http://www.w3.org/2000/svg"
   xmlns="http://www.w3.org/2000/svg"
   xmlns:sodipodi="http://sodipodi.sourceforge.net/DTD/sodipodi-0.dtd"
   xmlns:inkscape="http://www.inkscape.org/namespaces/inkscape"
   version="1.1"
   id="Capa_1"
   x="0px"
   y="0px"
   width="12.579859"
   height="24.000002"
   viewBox="0 0 12.579859 24.000002"
   xml:space="preserve"
   inkscape:version="0.91 r13725"
   sodipodi:docname="pull-to-refresh-icon.svg"><metadata
     id="metadata6767"><rdf:RDF><cc:Work
         rdf:about=""><dc:format>image/svg+xml</dc:format><dc:type
           rdf:resource="http://purl.org/dc/dcmitype/StillImage" /><dc:title></dc:title></cc:Work></rdf:RDF></metadata><defs
     id="defs6765" /><sodipodi:namedview
     pagecolor="#ffffff"
     bordercolor="#666666"
     borderopacity="1"
     objecttolerance="10"
     gridtolerance="10"
     guidetolerance="10"
     inkscape:pageopacity="0"
     inkscape:pageshadow="2"
     inkscape:window-width="1089"
     inkscape:window-height="659"
     id="namedview6763"
     showgrid="false"
     fit-margin-top="0"
     fit-margin-left="0"
     fit-margin-right="0"
     fit-margin-bottom="0"
     inkscape:zoom="9.1930139"
     inkscape:cx="2.3834241"
     inkscape:cy="1.4837644"
     inkscape:window-x="0"
     inkscape:window-y="0"
     inkscape:window-maximized="0"
     inkscape:current-layer="Capa_1" /><g
     id="g6723"
     transform="matrix(0.02526316,0,0,0.02526316,-5.7100691,0)"
     style="fill:#f5f5f5;fill-opacity:1"><g
       id="g6725"
       style="fill:#f5f5f5;fill-opacity:1"><path
         d="M 230.493,737.135 451.89,940.982 c 6.53,6.012 14.82,9.018 23.11,9.018 8.29,0 16.58,-3.006 23.11,-9.018 l 221.396,-203.85 c 9.227,-8.492 3.216,-23.893 -9.325,-23.893 l -59.098,0 0,-420.249 c 0,-17.739 -14.38,-32.119 -32.119,-32.119 l -289.62,0 c -16.805,0 -30.429,13.623 -30.429,30.429 l 0,421.938 -59.099,0 c -12.539,0.002 -18.548,15.403 -9.323,23.897 z"
         id="path6727"
         inkscape:connector-curvature="0"
         style="fill:#f5f5f5;fill-opacity:1" /><path
         d="m 618.965,130.299 -289.62,0 c -16.805,0 -30.429,13.623 -30.429,30.429 l 0,37.384 c 0,16.806 13.624,30.429 30.429,30.429 l 289.62,0 c 17.739,0 32.119,-14.38 32.119,-32.119 l 0,-34.005 c 0,-17.738 -14.38,-32.118 -32.119,-32.118 z"
         id="path6729"
         inkscape:connector-curvature="0"
         style="fill:#f5f5f5;fill-opacity:1" /><path
         d="M 651.084,32.119 C 651.084,14.38 636.704,0 618.965,0 L 329.345,0 C 312.54,0 298.916,13.623 298.916,30.429 l 0,37.385 c 0,16.806 13.624,30.429 30.429,30.429 l 289.62,0 c 17.739,0 32.119,-14.38 32.119,-32.119 l 0,-34.005 z"
         id="path6731"
         inkscape:connector-curvature="0"
         style="fill:#f5f5f5;fill-opacity:1" /></g></g><g
     id="g6733"
     transform="translate(-406.02355,-390)" /><g
     id="g6735"
     transform="translate(-406.02355,-390)" /><g
     id="g6737"
     transform="translate(-406.02355,-390)" /><g
     id="g6739"
     transform="translate(-406.02355,-390)" /><g
     id="g6741"
     transform="translate(-406.02355,-390)" /><g
     id="g6743"
     transform="translate(-406.02355,-390)" /><g
     id="g6745"
     transform="translate(-406.02355,-390)" /><g
     id="g6747"
     transform="translate(-406.02355,-390)" /><g
     id="g6749"
     transform="translate(-406.02355,-390)" /><g
     id="g6751"
     transform="translate(-406.02355,-390)" /><g
     id="g6753"
     transform="translate(-406.02355,-390)" /><g
     id="g6755"
     transform="translate(-406.02355,-390)" /><g
     id="g6757"
     transform="translate(-406.02355,-390)" /><g
     id="g6759"
     transform="translate(-406.02355,-390)" /><g
     id="g6761"
     transform="translate(-406.02355,-390)" /></svg>